<svg width="20" height="20" viewBox="0 0 20 20" fill="none" xmlns="http://www.w3.org/2000/svg">
<g clip-path="url(#clip0_314_13365)">
<path d="M5.89892 19.6255C5.5046 19.3632 5.15513 19.039 4.86392 18.6655C4.5436 18.28 4.24682 17.8755 3.97518 17.4543C3.33774 16.5204 2.83784 15.4998 2.49082 14.4237C2.07394 13.1737 1.87207 11.9756 1.87207 10.8037C1.87207 9.49495 2.15519 8.35246 2.70894 7.39246C3.11942 6.64212 3.72294 6.01508 4.45705 5.57623C5.16849 5.13434 5.98594 4.89251 6.82328 4.87623C7.11641 4.87623 7.43203 4.91873 7.76703 4.99998C8.00765 5.0681 8.30077 5.1756 8.6589 5.30935C9.11452 5.48498 9.36514 5.59248 9.45014 5.61873C9.71701 5.71623 9.94139 5.75872 10.1176 5.75872C10.2514 5.75872 10.4401 5.71623 10.6545 5.65123C10.7751 5.60873 11.0026 5.53373 11.3283 5.39435C11.6508 5.27685 11.9045 5.17623 12.1064 5.10123C12.4157 5.00998 12.7151 4.92561 12.982 4.88311C13.2984 4.83323 13.6194 4.82001 13.9389 4.84373C14.4924 4.87991 15.0376 4.9972 15.557 5.19185C16.4063 5.53373 17.0932 6.06747 17.6045 6.82622C17.3884 6.9594 17.1856 7.11302 16.9988 7.28496C16.5923 7.64532 16.2461 8.06837 15.9732 8.53808C15.6165 9.17999 15.4316 9.90311 15.4363 10.6374C15.4495 11.5393 15.6807 12.3337 16.1363 13.0205C16.4713 13.5296 16.9066 13.9649 17.4157 14.2999C17.6763 14.4755 17.9007 14.5962 18.1157 14.6774C18.0151 14.9899 17.9076 15.2924 17.7807 15.5924C17.493 16.2651 17.1442 16.9101 16.7388 17.5193C16.3776 18.0436 16.0945 18.4343 15.8795 18.6943C15.5445 19.0911 15.222 19.3943 14.8964 19.6055C14.5382 19.843 14.1151 19.9699 13.6851 19.9699C13.3939 19.9811 13.1028 19.9458 12.8226 19.8655C12.582 19.7843 12.3439 19.6961 12.1095 19.5955C11.8658 19.4836 11.6146 19.389 11.3576 19.3124C10.7224 19.1492 10.0565 19.1482 9.42077 19.3093C9.16014 19.3843 8.90952 19.4718 8.66202 19.5793C8.3139 19.7255 8.08265 19.8236 7.9489 19.8655C7.68203 19.9436 7.40516 19.9924 7.12516 20.0086C6.69204 20.0086 6.28829 19.8849 5.88829 19.6343L5.89892 19.6255ZM11.6114 4.24123C11.0451 4.52436 10.5045 4.64498 9.96764 4.60561C9.88326 4.06499 9.96764 3.51187 10.192 2.90624C10.383 2.39316 10.6653 1.91887 11.0251 1.50625C11.4051 1.0719 11.8662 0.71587 12.3826 0.458136C12.9326 0.175013 13.457 0.0218895 13.9582 -0.000610352C14.0232 0.565636 13.9582 1.12251 13.7501 1.72438C13.5575 2.25643 13.2758 2.75183 12.917 3.18937C12.5508 3.62432 12.1014 3.98173 11.5951 4.24061L11.6114 4.24123Z" fill="black"/>
</g>
<defs>
<clipPath id="clip0_314_13365">
<rect width="19.9999" height="19.9999" fill="white"/>
</clipPath>
</defs>
</svg>
