<svg width="20" height="17" viewBox="0 0 20 17" fill="none" xmlns="http://www.w3.org/2000/svg">
<path d="M2.88461 9.86424C3.55757 6.99651 6.3708 4.95889 9.5353 4.95889C12.6988 4.95889 15.5121 6.99651 16.186 9.86424C16.2127 9.97803 16.2892 10.0778 16.3988 10.1415C16.5083 10.2052 16.6419 10.2277 16.7702 10.204C16.8984 10.1803 17.0108 10.1124 17.0826 10.0152C17.1544 9.91795 17.1797 9.7994 17.153 9.68561C16.3863 6.42384 13.1794 4.08325 9.5353 4.08325C5.89124 4.08325 2.6843 6.42384 1.91759 9.68561C1.8909 9.7994 1.91624 9.91795 1.98804 10.0152C2.05984 10.1124 2.17222 10.1803 2.30045 10.204C2.42869 10.2277 2.56227 10.2052 2.67182 10.1415C2.78137 10.0778 2.85791 9.97803 2.88461 9.86424ZM9.52544 6.71018C10.4414 6.71018 11.3198 7.03307 11.9675 7.60782C12.6152 8.18257 12.9791 8.9621 12.9791 9.77492C12.9791 10.5877 12.6152 11.3673 11.9675 11.942C11.3198 12.5168 10.4414 12.8397 9.52544 12.8397C8.60948 12.8397 7.73104 12.5168 7.08335 11.942C6.43567 11.3673 6.07181 10.5877 6.07181 9.77492C6.07181 8.9621 6.43567 8.18257 7.08335 7.60782C7.73104 7.03307 8.60948 6.71018 9.52544 6.71018Z" fill="#838383"/>
</svg>
