<svg width="20" height="20" viewBox="0 0 20 20" fill="none" xmlns="http://www.w3.org/2000/svg">
<g clip-path="url(#clip0_314_13353)">
<path d="M4.93863 11.8965L4.30575 14.2591L1.99259 14.308C1.30129 13.0258 0.90918 11.5588 0.90918 9.99989C0.90918 8.4924 1.2758 7.07082 1.92565 5.81909H1.92615L3.98551 6.19665L4.88763 8.24365C4.69882 8.79411 4.59591 9.38501 4.59591 9.99989C4.59598 10.6672 4.71686 11.3066 4.93863 11.8965Z" fill="#FBBB00"/>
<path d="M18.9319 8.30164C19.0363 8.85156 19.0907 9.41949 19.0907 9.99992C19.0907 10.6508 19.0223 11.2856 18.8919 11.898C18.4494 13.9819 17.293 15.8016 15.6911 17.0893L15.6907 17.0888L13.0968 16.9564L12.7297 14.6647C13.7926 14.0414 14.6233 13.0658 15.0608 11.898H10.1997V8.30164H15.1317H18.9319Z" fill="#518EF8"/>
<path d="M15.6909 17.0889L15.6914 17.0894C14.1335 18.3416 12.1544 19.0908 10.0001 19.0908C6.5381 19.0908 3.52814 17.1558 1.99268 14.3082L4.93871 11.8966C5.70643 13.9455 7.68294 15.4041 10.0001 15.4041C10.9961 15.4041 11.9292 15.1348 12.7298 14.6648L15.6909 17.0889Z" fill="#28B446"/>
<path d="M15.8028 3.00182L12.8578 5.41288C12.0291 4.89492 11.0496 4.5957 10.0002 4.5957C7.63054 4.5957 5.61706 6.12115 4.8878 8.24354L1.92628 5.81899H1.92578C3.43877 2.90193 6.48669 0.908936 10.0002 0.908936C12.2059 0.908936 14.2284 1.69465 15.8028 3.00182Z" fill="#F14336"/>
</g>
<defs>
<clipPath id="clip0_314_13353">
<rect width="19.9999" height="19.9999" fill="white"/>
</clipPath>
</defs>
</svg>
