<svg width="20" height="20" viewBox="0 0 20 20" fill="none" xmlns="http://www.w3.org/2000/svg">
<path d="M14.167 17.0834H5.83366C3.33366 17.0834 1.66699 15.8334 1.66699 12.9167V7.08335C1.66699 4.16669 3.33366 2.91669 5.83366 2.91669H14.167C16.667 2.91669 18.3337 4.16669 18.3337 7.08335V12.9167C18.3337 15.8334 16.667 17.0834 14.167 17.0834Z" stroke="white" stroke-miterlimit="10" stroke-linecap="round" stroke-linejoin="round"/>
<path d="M10 12.5C11.3807 12.5 12.5 11.3807 12.5 10C12.5 8.61929 11.3807 7.5 10 7.5C8.61929 7.5 7.5 8.61929 7.5 10C7.5 11.3807 8.61929 12.5 10 12.5Z" stroke="white" stroke-miterlimit="10" stroke-linecap="round" stroke-linejoin="round"/>
<path d="M7.08333 5H5.83333C4.68333 5 3.75 5.93333 3.75 7.08333V8.33333" stroke="white" stroke-miterlimit="10" stroke-linecap="round" stroke-linejoin="round"/>
<path d="M12.917 5H14.167C15.317 5 16.2503 5.93333 16.2503 7.08333V8.33333" stroke="white" stroke-miterlimit="10" stroke-linecap="round" stroke-linejoin="round"/>
<path d="M7.08333 15H5.83333C4.68333 15 3.75 14.0667 3.75 12.9167V11.6667" stroke="white" stroke-miterlimit="10" stroke-linecap="round" stroke-linejoin="round"/>
<path d="M12.917 15H14.167C15.317 15 16.2503 14.0667 16.2503 12.9167V11.6667" stroke="white" stroke-miterlimit="10" stroke-linecap="round" stroke-linejoin="round"/>
</svg>
