<svg width="214" height="180" viewBox="0 0 214 180" fill="none" xmlns="http://www.w3.org/2000/svg">
<ellipse opacity="0.1" cx="107.761" cy="113.211" rx="64.7233" ry="66.2182" fill="#F37622"/>
<ellipse cx="35.7301" cy="63.0138" rx="4.1757" ry="4.27214" fill="#2A2A2A"/>
<ellipse cx="114.546" cy="16.5544" rx="8.87336" ry="9.0783" fill="#2A2A2A"/>
<ellipse cx="194.407" cy="101.463" rx="8.3514" ry="8.54428" fill="#F37622"/>
<path d="M157.869 5.33984L160.043 11.6608L166.221 13.8841L160.043 16.1075L157.869 22.4284L155.696 16.1075L149.518 13.8841L155.696 11.6608L157.869 5.33984Z" fill="#DE2929"/>
<path d="M29.1049 83.873C29.1049 83.873 27.3862 90.9715 19.2461 91.2771C13.8194 91.4809 12.5427 85.7271 6.20339 89.6219C3.3802 91.3565 1.28076 96.6267 1.28076 96.6267" stroke="#DE2929" stroke-width="2.56748" stroke-linecap="round"/>
<path d="M32.0762 124.96L35.0912 133.09L43.0374 136.174L35.0912 139.259L32.0762 147.389L29.0612 139.259L21.115 136.174L29.0612 133.09L32.0762 124.96Z" fill="#F37622"/>
<ellipse cx="104.629" cy="3.2037" rx="2.08785" ry="2.13607" fill="#DE2929"/>
<path d="M39.2009 4.01822C40.2271 13.1456 60.9589 22.243 61.4209 14.7755C62.1529 2.94206 34.1929 12.1685 72.3383 27.6752" stroke="#F37622" stroke-width="2.56765" stroke-linecap="round"/>
<path d="M192.319 142.913C197.501 142.161 208.8 143.429 212.539 154.519" stroke="#2A2A2A" stroke-width="2.56765" stroke-linecap="round"/>
<path d="M187.182 39.9087C187.182 39.9087 194.759 43.8526 197.935 40.3179C200.832 37.0936 197.482 32.0615 200.987 29.547C203.839 27.5009 209.88 28.8486 209.88 28.8486" stroke="#F37622" stroke-width="2.5675" stroke-linecap="round"/>
<rect x="183.968" y="79.0342" width="7.30747" height="7.47625" rx="1.71161" fill="#F37622"/>
<path d="M101.083 66.3572C105.351 64.5482 110.171 64.5482 114.44 66.3572L135.501 75.283C139.68 77.0539 142.986 80.4121 144.689 84.6189L153.664 106.788C155.331 110.908 155.331 115.515 153.664 119.635L144.689 141.802C142.986 146.009 139.68 149.368 135.501 151.139L114.44 160.065C110.171 161.874 105.351 161.874 101.083 160.065L80.02 151.139C75.8412 149.368 72.5367 146.009 70.8335 141.802L61.8589 119.635C60.191 115.515 60.191 110.908 61.8589 106.788L70.8335 84.6189C72.5367 80.4121 75.8413 77.0539 80.02 75.283L101.083 66.3572Z" fill="#F5F5FF" stroke="#F37622" stroke-width="6.84642"/>
<path fill-rule="evenodd" clip-rule="evenodd" d="M121.523 99.1245C122.115 98.5386 122.912 98.2089 123.745 98.2066C124.577 98.2043 125.377 98.5296 125.971 99.1122C126.565 99.6949 126.906 100.488 126.921 101.32C126.935 102.152 126.621 102.957 126.047 103.559L109.187 124.634C108.897 124.946 108.547 125.197 108.158 125.371C107.77 125.545 107.35 125.638 106.924 125.646C106.498 125.654 106.075 125.576 105.68 125.417C105.285 125.257 104.926 125.02 104.625 124.719L93.4542 113.543C93.143 113.253 92.8934 112.904 92.7203 112.515C92.5471 112.127 92.454 111.707 92.4465 111.282C92.439 110.857 92.5173 110.434 92.6766 110.04C92.8359 109.645 93.073 109.287 93.3738 108.986C93.6746 108.685 94.0329 108.448 94.4273 108.289C94.8217 108.13 95.2442 108.051 95.6695 108.059C96.0949 108.066 96.5143 108.16 96.9029 108.333C97.2914 108.506 97.6411 108.755 97.9311 109.067L106.775 117.906L121.443 99.2174C121.469 99.1847 121.498 99.1537 121.528 99.1245H121.523Z" fill="#F37622"/>
</svg>
